<svg xmlns="http://www.w3.org/2000/svg" width="96" height="96" viewBox="0 0 96 96" fill="none">
    <defs>
        <linearGradient id="rx-g" x1="0" y1="0" x2="96" y2="96" gradientUnits="userSpaceOnUse">
            <stop stop-color="#60A5FA"/>
            <stop offset="1" stop-color="#A78BFA"/>
        </linearGradient>
    </defs>
    <rect x="6" y="6" width="84" height="84" rx="20" fill="url(#rx-g)"/>
    <rect x="10" y="10" width="76" height="76" rx="16" fill="#0B0B0B"/>
    <path d="M30 30h18c6 0 10 4 10 10 0 5-3 9-8 10l10 16h-8l-9-14h-6v14h-7V30zm7 6v10h10c3 0 5-2 5-5s-2-5-5-5H37z" fill="white"/>
    <path d="M63 53l11 13h-8l-7-8 4-5z" fill="white"/>
</svg>