<?xml version="1.0" encoding="UTF-8"?>
<svg width="850" height="1100" viewBox="0 0 850 1100" xmlns="http://www.w3.org/2000/svg">
  <!-- Background -->
  <rect width="850" height="1100" fill="#f5f5f5"/>
  
  <!-- Header with color -->
  <rect width="850" height="150" fill="#0277BD"/>
  
  <!-- Template Name -->
  <text x="425" y="90" font-family="Arial, sans-serif" font-size="36" font-weight="bold" fill="white" text-anchor="middle">
    🏥 Healthcare Professional
  </text>
  
  <!-- Content Area - Header Section -->
  <rect x="50" y="200" width="750" height="80" fill="white" rx="4"/>
  <text x="425" y="250" font-family="Arial, sans-serif" font-size="24" font-weight="bold" fill="#333" text-anchor="middle">
    John Doe
  </text>
  
  <!-- Content Area - Two Column Layout -->
  <rect x="50" y="300" width="350" height="40" fill="white" rx="4"/>
  <rect x="450" y="300" width="350" height="40" fill="white" rx="4"/>
  
  <rect x="50" y="360" width="350" height="40" fill="white" rx="4"/>
  <rect x="450" y="360" width="350" height="40" fill="white" rx="4"/>
  
  <rect x="50" y="420" width="350" height="40" fill="white" rx="4"/>
  <rect x="450" y="420" width="350" height="40" fill="white" rx="4"/>
  
  <!-- Experience Section -->
  <rect x="50" y="500" width="750" height="30" fill="#0277BD" opacity="0.2" rx="4"/>
  <rect x="50" y="550" width="750" height="60" fill="white" rx="4"/>
  <rect x="50" y="630" width="750" height="60" fill="white" rx="4"/>
  
  <!-- Skills Section -->
  <rect x="50" y="720" width="750" height="30" fill="#0277BD" opacity="0.2" rx="4"/>
  <rect x="50" y="770" width="150" height="30" fill="#0277BD" opacity="0.3" rx="15"/>
  <rect x="220" y="770" width="150" height="30" fill="#0277BD" opacity="0.3" rx="15"/>
  <rect x="390" y="770" width="150" height="30" fill="#0277BD" opacity="0.3" rx="15"/>
  
  <!-- Education Section -->
  <rect x="50" y="830" width="750" height="30" fill="#0277BD" opacity="0.2" rx="4"/>
  <rect x="50" y="880" width="750" height="60" fill="white" rx="4"/>
  
  <!-- Footer Decoration -->
  <line x1="50" y1="1050" x2="800" y2="1050" stroke="#0277BD" stroke-width="2"/>
  
  <!-- Preview Label -->
  <text x="425" y="1085" font-family="Arial, sans-serif" font-size="12" fill="#999" text-anchor="middle">
    Template Preview
  </text>
</svg>